<svg version="1.1" xmlns="http://www.w3.org/2000/svg" style="display: block;" viewBox="0 0 2000 2000" width="500" height="500" preserveAspectRatio="none">
<defs>
	<linearGradient id="Gradient1" gradientUnits="userSpaceOnUse" x1="1039.75" y1="1345.61" x2="961.699" y2="1095.25">
		<stop class="stop0" offset="0" stop-opacity="1" stop-color="rgb(187,139,60)"/>
		<stop class="stop1" offset="1" stop-opacity="1" stop-color="rgb(217,172,85)"/>
	</linearGradient>
	<linearGradient id="Gradient2" gradientUnits="userSpaceOnUse" x1="1006.09" y1="1483.89" x2="890.499" y2="498.736">
		<stop class="stop0" offset="0" stop-opacity="1" stop-color="rgb(169,124,48)"/>
		<stop class="stop1" offset="1" stop-opacity="1" stop-color="rgb(245,199,107)"/>
	</linearGradient>
	<linearGradient id="Gradient3" gradientUnits="userSpaceOnUse" x1="1186.48" y1="1881.61" x2="813.933" y2="94.8055">
		<stop class="stop0" offset="0" stop-opacity="1" stop-color="rgb(167,123,49)"/>
		<stop class="stop1" offset="1" stop-opacity="1" stop-color="rgb(235,190,102)"/>
	</linearGradient>
</defs>
<circle fill="rgb(0,0,0)" cx="1000" cy="1000" r="1000"/>
<path transform="translate(0,0)" fill="url(#Gradient3)" d="M 959.302 77.4927 C 1462.73 54.6102 1889.35 444.283 1912.02 947.726 C 1934.7 1451.17 1544.86 1877.62 1041.41 1900.1 C 538.244 1922.56 112.086 1532.99 89.4195 1029.83 C 66.7529 526.677 456.156 100.362 959.302 77.4927 z"/>
<path transform="translate(0,0)" fill="rgb(0,0,0)" d="M 992.988 174.238 C 1443.14 169.979 1811.53 531.438 1815.81 981.595 C 1820.09 1431.75 1458.65 1800.15 1008.49 1804.45 C 558.305 1808.76 189.874 1447.29 185.592 997.099 C 181.311 546.912 542.8 178.498 992.988 174.238 z"/>
<path transform="translate(0,0)" fill="url(#Gradient2)" d="M 969.349 506.227 C 978.154 487.866 990.015 464.733 1000.18 447.116 C 1009.87 469.346 1025.03 492.015 1034.62 514.212 C 1035.96 515.646 1045.33 533.873 1046.85 536.78 L 1075.36 590.789 C 1134.38 701.429 1192.48 812.557 1249.66 924.162 L 1426.44 1259.94 C 1454.59 1313.57 1487.57 1373.55 1513.21 1427.77 C 1472.03 1427.27 1429.9 1428.37 1388.39 1427.99 C 1375.44 1401.28 1355.47 1369.35 1340.19 1343.22 L 1280.18 1239.22 L 1113.41 950.953 L 1041.95 827.545 C 1028.72 804.701 1012.35 778.667 1000.51 755.365 C 975.715 799.295 948.402 843.928 923.019 887.784 L 726.105 1228.58 C 688.609 1293.42 647.413 1362.41 612.009 1428.02 L 486.961 1427.89 C 531.812 1336.18 584.615 1239.65 632.6 1149.2 L 790.177 848.071 C 833.901 762.912 878.192 678.046 923.048 593.478 C 935.892 569.574 955.869 527.466 969.349 506.227 z"/>
<path transform="translate(0,0)" fill="rgb(234,192,106)" d="M 969.349 506.227 C 978.154 487.866 990.015 464.733 1000.18 447.116 C 1009.87 469.346 1025.03 492.015 1034.62 514.212 C 1028.84 511.377 1025.79 499.493 1021.28 492.407 C 1016.62 489.944 1006.82 492.599 1003.82 492.029 C 994.172 490.195 990.967 488.682 980.706 488.129 C 978.096 493.673 974.353 503.395 969.349 506.227 z"/>
<path transform="translate(0,0)" fill="url(#Gradient1)" d="M 997.533 1082.96 C 998.134 1079.37 998.481 1075.21 1000.26 1072.13 C 1002.2 1074.23 1002.19 1077.24 1002.65 1080.24 C 1025.34 1155.85 1063.06 1197.88 1141.52 1216.92 C 1092.96 1229.42 1052.67 1251.75 1026.46 1296.27 C 1014.34 1317.21 1005.37 1339.83 999.833 1363.38 C 983.486 1284.2 936.081 1235.66 857.982 1217.06 C 924.653 1202.49 970.538 1162.95 991.716 1098.68 C 993.201 1094.18 995.623 1087.16 997.533 1082.96 z"/>
<path transform="translate(0,0)" fill="rgb(234,192,106)" d="M 997.533 1082.96 C 998.134 1079.37 998.481 1075.21 1000.26 1072.13 C 1002.2 1074.23 1002.19 1077.24 1002.65 1080.24 C 1000.85 1082.36 1000.58 1083.68 997.533 1082.96 z"/>
</svg>